<mxfile host="app.diagrams.net" modified="2021-06-01T12:17:23.295Z" agent="5.0 (Windows)" etag="SMRAXoPWF80qZm8FmZh7" version="14.7.3" type="github">
  <diagram id="x0KxTQFhnP8CIi758Cpj" name="Page-1">
    <mxGraphModel dx="956" dy="797" grid="1" gridSize="10" guides="1" tooltips="1" connect="1" arrows="1" fold="1" page="1" pageScale="1" pageWidth="850" pageHeight="1100" math="0" shadow="0">
      <root>
        <mxCell id="0" />
        <mxCell id="1" parent="0" />
        <mxCell id="bo-OnJL9LOYkDEpv9ZMt-1" value="S" style="ellipse;whiteSpace=wrap;html=1;aspect=fixed;" parent="1" vertex="1">
          <mxGeometry x="40" y="210" width="50" height="50" as="geometry" />
        </mxCell>
        <mxCell id="bo-OnJL9LOYkDEpv9ZMt-2" value="d" style="ellipse;whiteSpace=wrap;html=1;aspect=fixed;" parent="1" vertex="1">
          <mxGeometry x="140" y="210" width="50" height="50" as="geometry" />
        </mxCell>
        <mxCell id="bo-OnJL9LOYkDEpv9ZMt-3" value="L" style="ellipse;whiteSpace=wrap;html=1;aspect=fixed;" parent="1" vertex="1">
          <mxGeometry x="230" y="210" width="50" height="50" as="geometry" />
        </mxCell>
        <mxCell id="bo-OnJL9LOYkDEpv9ZMt-4" value="R" style="ellipse;whiteSpace=wrap;html=1;aspect=fixed;" parent="1" vertex="1">
          <mxGeometry x="320" y="210" width="50" height="50" as="geometry" />
        </mxCell>
        <mxCell id="bo-OnJL9LOYkDEpv9ZMt-5" value="O" style="ellipse;whiteSpace=wrap;html=1;aspect=fixed;" parent="1" vertex="1">
          <mxGeometry x="400" y="210" width="50" height="50" as="geometry" />
        </mxCell>
        <mxCell id="bo-OnJL9LOYkDEpv9ZMt-6" value="L" style="ellipse;whiteSpace=wrap;html=1;aspect=fixed;" parent="1" vertex="1">
          <mxGeometry x="660" y="210" width="50" height="50" as="geometry" />
        </mxCell>
        <mxCell id="bo-OnJL9LOYkDEpv9ZMt-7" value="O" style="ellipse;whiteSpace=wrap;html=1;aspect=fixed;" parent="1" vertex="1">
          <mxGeometry x="580" y="210" width="50" height="50" as="geometry" />
        </mxCell>
        <mxCell id="bo-OnJL9LOYkDEpv9ZMt-8" value="W" style="ellipse;whiteSpace=wrap;html=1;aspect=fixed;" parent="1" vertex="1">
          <mxGeometry x="490" y="210" width="50" height="50" as="geometry" />
        </mxCell>
        <mxCell id="bo-OnJL9LOYkDEpv9ZMt-9" value="L" style="ellipse;whiteSpace=wrap;html=1;aspect=fixed;" parent="1" vertex="1">
          <mxGeometry x="740" y="210" width="50" height="50" as="geometry" />
        </mxCell>
        <mxCell id="bo-OnJL9LOYkDEpv9ZMt-10" value="L" style="ellipse;whiteSpace=wrap;html=1;aspect=fixed;" parent="1" vertex="1">
          <mxGeometry x="720" y="290" width="50" height="50" as="geometry" />
        </mxCell>
        <mxCell id="bo-OnJL9LOYkDEpv9ZMt-11" value="E" style="ellipse;whiteSpace=wrap;html=1;aspect=fixed;" parent="1" vertex="1">
          <mxGeometry x="710" y="370" width="50" height="50" as="geometry" />
        </mxCell>
        <mxCell id="bo-OnJL9LOYkDEpv9ZMt-13" value="H" style="ellipse;whiteSpace=wrap;html=1;aspect=fixed;" parent="1" vertex="1">
          <mxGeometry x="630" y="400" width="50" height="50" as="geometry" />
        </mxCell>
        <mxCell id="bo-OnJL9LOYkDEpv9ZMt-14" value="I" style="ellipse;whiteSpace=wrap;html=1;aspect=fixed;" parent="1" vertex="1">
          <mxGeometry x="530" y="420" width="50" height="50" as="geometry" />
        </mxCell>
        <mxCell id="bo-OnJL9LOYkDEpv9ZMt-15" value="Error" style="ellipse;whiteSpace=wrap;html=1;aspect=fixed;" parent="1" vertex="1">
          <mxGeometry x="330" y="370" width="50" height="50" as="geometry" />
        </mxCell>
        <mxCell id="bo-OnJL9LOYkDEpv9ZMt-16" value="S" style="ellipse;whiteSpace=wrap;html=1;aspect=fixed;" parent="1" vertex="1">
          <mxGeometry x="180" y="440" width="50" height="50" as="geometry" />
        </mxCell>
        <mxCell id="bo-OnJL9LOYkDEpv9ZMt-17" value="" style="endArrow=classic;html=1;exitX=1;exitY=0.5;exitDx=0;exitDy=0;entryX=0;entryY=0.5;entryDx=0;entryDy=0;" parent="1" source="bo-OnJL9LOYkDEpv9ZMt-1" target="bo-OnJL9LOYkDEpv9ZMt-2" edge="1">
          <mxGeometry width="50" height="50" relative="1" as="geometry">
            <mxPoint x="360" y="430" as="sourcePoint" />
            <mxPoint x="410" y="380" as="targetPoint" />
          </mxGeometry>
        </mxCell>
        <mxCell id="bo-OnJL9LOYkDEpv9ZMt-18" value="" style="endArrow=classic;html=1;exitX=1;exitY=0.5;exitDx=0;exitDy=0;entryX=0;entryY=0.5;entryDx=0;entryDy=0;" parent="1" source="bo-OnJL9LOYkDEpv9ZMt-2" target="bo-OnJL9LOYkDEpv9ZMt-3" edge="1">
          <mxGeometry width="50" height="50" relative="1" as="geometry">
            <mxPoint x="132.67766952966372" y="257.3223304703363" as="sourcePoint" />
            <mxPoint x="178" y="234" as="targetPoint" />
          </mxGeometry>
        </mxCell>
        <mxCell id="bo-OnJL9LOYkDEpv9ZMt-19" value="" style="endArrow=classic;html=1;exitX=1;exitY=0.5;exitDx=0;exitDy=0;entryX=0;entryY=0.5;entryDx=0;entryDy=0;" parent="1" source="bo-OnJL9LOYkDEpv9ZMt-7" target="bo-OnJL9LOYkDEpv9ZMt-6" edge="1">
          <mxGeometry width="50" height="50" relative="1" as="geometry">
            <mxPoint x="222.67766952966372" y="242.67766952966372" as="sourcePoint" />
            <mxPoint x="277.3223304703363" y="267.3223304703363" as="targetPoint" />
          </mxGeometry>
        </mxCell>
        <mxCell id="bo-OnJL9LOYkDEpv9ZMt-20" value="" style="endArrow=classic;html=1;exitX=1;exitY=0.5;exitDx=0;exitDy=0;entryX=0;entryY=0.5;entryDx=0;entryDy=0;" parent="1" source="bo-OnJL9LOYkDEpv9ZMt-8" target="bo-OnJL9LOYkDEpv9ZMt-7" edge="1">
          <mxGeometry width="50" height="50" relative="1" as="geometry">
            <mxPoint x="232.67766952966372" y="252.67766952966372" as="sourcePoint" />
            <mxPoint x="287.3223304703363" y="277.3223304703363" as="targetPoint" />
          </mxGeometry>
        </mxCell>
        <mxCell id="bo-OnJL9LOYkDEpv9ZMt-21" value="" style="endArrow=classic;html=1;exitX=1;exitY=0.5;exitDx=0;exitDy=0;entryX=0;entryY=0.5;entryDx=0;entryDy=0;" parent="1" source="bo-OnJL9LOYkDEpv9ZMt-5" target="bo-OnJL9LOYkDEpv9ZMt-8" edge="1">
          <mxGeometry width="50" height="50" relative="1" as="geometry">
            <mxPoint x="242.67766952966372" y="262.6776695296637" as="sourcePoint" />
            <mxPoint x="297.3223304703363" y="287.3223304703363" as="targetPoint" />
          </mxGeometry>
        </mxCell>
        <mxCell id="bo-OnJL9LOYkDEpv9ZMt-22" value="" style="endArrow=classic;html=1;exitX=1;exitY=0.5;exitDx=0;exitDy=0;entryX=0;entryY=0.5;entryDx=0;entryDy=0;" parent="1" source="bo-OnJL9LOYkDEpv9ZMt-4" target="bo-OnJL9LOYkDEpv9ZMt-5" edge="1">
          <mxGeometry width="50" height="50" relative="1" as="geometry">
            <mxPoint x="252.67766952966372" y="272.6776695296637" as="sourcePoint" />
            <mxPoint x="307.3223304703363" y="297.3223304703363" as="targetPoint" />
          </mxGeometry>
        </mxCell>
        <mxCell id="bo-OnJL9LOYkDEpv9ZMt-23" value="" style="endArrow=classic;html=1;exitX=1;exitY=0.5;exitDx=0;exitDy=0;entryX=0;entryY=0.5;entryDx=0;entryDy=0;" parent="1" source="bo-OnJL9LOYkDEpv9ZMt-3" target="bo-OnJL9LOYkDEpv9ZMt-4" edge="1">
          <mxGeometry width="50" height="50" relative="1" as="geometry">
            <mxPoint x="262.6776695296637" y="282.6776695296637" as="sourcePoint" />
            <mxPoint x="317.3223304703363" y="307.3223304703363" as="targetPoint" />
          </mxGeometry>
        </mxCell>
        <mxCell id="bo-OnJL9LOYkDEpv9ZMt-25" value="" style="endArrow=classic;html=1;exitX=0.5;exitY=1;exitDx=0;exitDy=0;entryX=0.5;entryY=0;entryDx=0;entryDy=0;" parent="1" source="bo-OnJL9LOYkDEpv9ZMt-9" target="bo-OnJL9LOYkDEpv9ZMt-10" edge="1">
          <mxGeometry width="50" height="50" relative="1" as="geometry">
            <mxPoint x="592.6776695296637" y="267.3223304703363" as="sourcePoint" />
            <mxPoint x="637.3223304703363" y="232.67766952966372" as="targetPoint" />
          </mxGeometry>
        </mxCell>
        <mxCell id="bo-OnJL9LOYkDEpv9ZMt-26" value="" style="endArrow=classic;html=1;exitX=1;exitY=0.5;exitDx=0;exitDy=0;entryX=0;entryY=0.5;entryDx=0;entryDy=0;" parent="1" source="bo-OnJL9LOYkDEpv9ZMt-6" target="bo-OnJL9LOYkDEpv9ZMt-9" edge="1">
          <mxGeometry width="50" height="50" relative="1" as="geometry">
            <mxPoint x="602.6776695296637" y="277.3223304703363" as="sourcePoint" />
            <mxPoint x="647.3223304703363" y="242.67766952966372" as="targetPoint" />
          </mxGeometry>
        </mxCell>
        <mxCell id="bo-OnJL9LOYkDEpv9ZMt-27" value="" style="endArrow=classic;html=1;exitX=0.5;exitY=1;exitDx=0;exitDy=0;entryX=0.5;entryY=0;entryDx=0;entryDy=0;" parent="1" source="bo-OnJL9LOYkDEpv9ZMt-10" target="bo-OnJL9LOYkDEpv9ZMt-11" edge="1">
          <mxGeometry width="50" height="50" relative="1" as="geometry">
            <mxPoint x="717.3223304703363" y="292.6776695296637" as="sourcePoint" />
            <mxPoint x="675" y="330" as="targetPoint" />
          </mxGeometry>
        </mxCell>
        <mxCell id="bo-OnJL9LOYkDEpv9ZMt-28" value="" style="endArrow=classic;html=1;exitX=0;exitY=1;exitDx=0;exitDy=0;entryX=1;entryY=0.5;entryDx=0;entryDy=0;" parent="1" source="bo-OnJL9LOYkDEpv9ZMt-11" target="bo-OnJL9LOYkDEpv9ZMt-13" edge="1">
          <mxGeometry width="50" height="50" relative="1" as="geometry">
            <mxPoint x="692.6776695296637" y="372.6776695296637" as="sourcePoint" />
            <mxPoint x="727.3223304703363" y="387.3223304703363" as="targetPoint" />
          </mxGeometry>
        </mxCell>
        <mxCell id="bo-OnJL9LOYkDEpv9ZMt-29" value="" style="endArrow=classic;html=1;exitX=0;exitY=0.5;exitDx=0;exitDy=0;entryX=1;entryY=0.5;entryDx=0;entryDy=0;" parent="1" source="bo-OnJL9LOYkDEpv9ZMt-13" target="bo-OnJL9LOYkDEpv9ZMt-14" edge="1">
          <mxGeometry width="50" height="50" relative="1" as="geometry">
            <mxPoint x="727.3223304703363" y="422.6776695296637" as="sourcePoint" />
            <mxPoint x="692.6776695296637" y="437.3223304703363" as="targetPoint" />
          </mxGeometry>
        </mxCell>
        <mxCell id="bo-OnJL9LOYkDEpv9ZMt-30" value="" style="endArrow=classic;html=1;exitX=1;exitY=1;exitDx=0;exitDy=0;entryX=0;entryY=0.5;entryDx=0;entryDy=0;" parent="1" source="bo-OnJL9LOYkDEpv9ZMt-1" target="bo-OnJL9LOYkDEpv9ZMt-15" edge="1">
          <mxGeometry width="50" height="50" relative="1" as="geometry">
            <mxPoint x="360" y="430" as="sourcePoint" />
            <mxPoint x="410" y="380" as="targetPoint" />
          </mxGeometry>
        </mxCell>
        <mxCell id="bo-OnJL9LOYkDEpv9ZMt-32" value="" style="endArrow=classic;html=1;exitX=0.5;exitY=1;exitDx=0;exitDy=0;entryX=0;entryY=0;entryDx=0;entryDy=0;" parent="1" source="bo-OnJL9LOYkDEpv9ZMt-2" target="bo-OnJL9LOYkDEpv9ZMt-15" edge="1">
          <mxGeometry width="50" height="50" relative="1" as="geometry">
            <mxPoint x="132.67766952966372" y="292.6776695296637" as="sourcePoint" />
            <mxPoint x="340" y="405" as="targetPoint" />
          </mxGeometry>
        </mxCell>
        <mxCell id="bo-OnJL9LOYkDEpv9ZMt-33" value="" style="endArrow=classic;html=1;exitX=0.64;exitY=1;exitDx=0;exitDy=0;exitPerimeter=0;entryX=0;entryY=0;entryDx=0;entryDy=0;" parent="1" source="bo-OnJL9LOYkDEpv9ZMt-3" target="bo-OnJL9LOYkDEpv9ZMt-15" edge="1">
          <mxGeometry width="50" height="50" relative="1" as="geometry">
            <mxPoint x="205" y="250" as="sourcePoint" />
            <mxPoint x="340" y="370" as="targetPoint" />
          </mxGeometry>
        </mxCell>
        <mxCell id="bo-OnJL9LOYkDEpv9ZMt-34" value="" style="endArrow=classic;html=1;exitX=0.5;exitY=1;exitDx=0;exitDy=0;entryX=0.5;entryY=0;entryDx=0;entryDy=0;" parent="1" source="bo-OnJL9LOYkDEpv9ZMt-4" target="bo-OnJL9LOYkDEpv9ZMt-15" edge="1">
          <mxGeometry width="50" height="50" relative="1" as="geometry">
            <mxPoint x="302" y="310" as="sourcePoint" />
            <mxPoint x="347.3223304703363" y="387.3223304703363" as="targetPoint" />
          </mxGeometry>
        </mxCell>
        <mxCell id="bo-OnJL9LOYkDEpv9ZMt-35" value="" style="endArrow=classic;html=1;exitX=0.32;exitY=1.02;exitDx=0;exitDy=0;entryX=0.5;entryY=0;entryDx=0;entryDy=0;exitPerimeter=0;" parent="1" source="bo-OnJL9LOYkDEpv9ZMt-5" target="bo-OnJL9LOYkDEpv9ZMt-15" edge="1">
          <mxGeometry width="50" height="50" relative="1" as="geometry">
            <mxPoint x="355" y="250" as="sourcePoint" />
            <mxPoint x="365" y="380" as="targetPoint" />
          </mxGeometry>
        </mxCell>
        <mxCell id="bo-OnJL9LOYkDEpv9ZMt-36" value="" style="endArrow=classic;html=1;exitX=0.5;exitY=1;exitDx=0;exitDy=0;entryX=1;entryY=0;entryDx=0;entryDy=0;" parent="1" source="bo-OnJL9LOYkDEpv9ZMt-8" target="bo-OnJL9LOYkDEpv9ZMt-15" edge="1">
          <mxGeometry width="50" height="50" relative="1" as="geometry">
            <mxPoint x="426" y="311" as="sourcePoint" />
            <mxPoint x="365" y="380" as="targetPoint" />
          </mxGeometry>
        </mxCell>
        <mxCell id="bo-OnJL9LOYkDEpv9ZMt-37" value="" style="endArrow=classic;html=1;exitX=0;exitY=1;exitDx=0;exitDy=0;entryX=1;entryY=0.5;entryDx=0;entryDy=0;" parent="1" source="bo-OnJL9LOYkDEpv9ZMt-7" target="bo-OnJL9LOYkDEpv9ZMt-15" edge="1">
          <mxGeometry width="50" height="50" relative="1" as="geometry">
            <mxPoint x="495" y="240" as="sourcePoint" />
            <mxPoint x="383" y="387" as="targetPoint" />
          </mxGeometry>
        </mxCell>
        <mxCell id="bo-OnJL9LOYkDEpv9ZMt-39" value="" style="endArrow=classic;html=1;exitX=0.5;exitY=1;exitDx=0;exitDy=0;entryX=1;entryY=0.5;entryDx=0;entryDy=0;" parent="1" source="bo-OnJL9LOYkDEpv9ZMt-6" target="bo-OnJL9LOYkDEpv9ZMt-15" edge="1">
          <mxGeometry width="50" height="50" relative="1" as="geometry">
            <mxPoint x="597.3223304703363" y="262.6776695296637" as="sourcePoint" />
            <mxPoint x="390" y="405" as="targetPoint" />
          </mxGeometry>
        </mxCell>
        <mxCell id="bo-OnJL9LOYkDEpv9ZMt-40" value="" style="endArrow=classic;html=1;exitX=0;exitY=1;exitDx=0;exitDy=0;entryX=1;entryY=0.5;entryDx=0;entryDy=0;" parent="1" source="bo-OnJL9LOYkDEpv9ZMt-9" target="bo-OnJL9LOYkDEpv9ZMt-15" edge="1">
          <mxGeometry width="50" height="50" relative="1" as="geometry">
            <mxPoint x="695" y="270" as="sourcePoint" />
            <mxPoint x="390" y="405" as="targetPoint" />
          </mxGeometry>
        </mxCell>
        <mxCell id="bo-OnJL9LOYkDEpv9ZMt-41" value="" style="endArrow=classic;html=1;exitX=0;exitY=0.5;exitDx=0;exitDy=0;entryX=1;entryY=0.5;entryDx=0;entryDy=0;" parent="1" source="bo-OnJL9LOYkDEpv9ZMt-10" target="bo-OnJL9LOYkDEpv9ZMt-15" edge="1">
          <mxGeometry width="50" height="50" relative="1" as="geometry">
            <mxPoint x="757.3223304703363" y="262.6776695296637" as="sourcePoint" />
            <mxPoint x="390" y="405" as="targetPoint" />
          </mxGeometry>
        </mxCell>
        <mxCell id="bo-OnJL9LOYkDEpv9ZMt-42" value="" style="endArrow=classic;html=1;exitX=0;exitY=0.5;exitDx=0;exitDy=0;entryX=1;entryY=1;entryDx=0;entryDy=0;" parent="1" source="bo-OnJL9LOYkDEpv9ZMt-11" target="bo-OnJL9LOYkDEpv9ZMt-15" edge="1">
          <mxGeometry width="50" height="50" relative="1" as="geometry">
            <mxPoint x="730" y="325" as="sourcePoint" />
            <mxPoint x="390" y="405" as="targetPoint" />
          </mxGeometry>
        </mxCell>
        <mxCell id="bo-OnJL9LOYkDEpv9ZMt-43" style="edgeStyle=orthogonalEdgeStyle;rounded=0;orthogonalLoop=1;jettySize=auto;html=1;entryX=0.72;entryY=0.96;entryDx=0;entryDy=0;entryPerimeter=0;curved=1;" parent="1" source="bo-OnJL9LOYkDEpv9ZMt-15" target="bo-OnJL9LOYkDEpv9ZMt-15" edge="1">
          <mxGeometry relative="1" as="geometry">
            <Array as="points">
              <mxPoint x="340" y="450" />
              <mxPoint x="366" y="450" />
            </Array>
          </mxGeometry>
        </mxCell>
        <mxCell id="bo-OnJL9LOYkDEpv9ZMt-44" value="" style="endArrow=classic;html=1;exitX=0;exitY=1;exitDx=0;exitDy=0;entryX=1;entryY=0.5;entryDx=0;entryDy=0;" parent="1" source="bo-OnJL9LOYkDEpv9ZMt-15" target="bo-OnJL9LOYkDEpv9ZMt-16" edge="1">
          <mxGeometry width="50" height="50" relative="1" as="geometry">
            <mxPoint x="92.67766952966372" y="262.6776695296637" as="sourcePoint" />
            <mxPoint x="340" y="405" as="targetPoint" />
          </mxGeometry>
        </mxCell>
        <mxCell id="bo-OnJL9LOYkDEpv9ZMt-46" value="d,d/λ" style="text;html=1;strokeColor=none;fillColor=none;align=center;verticalAlign=middle;whiteSpace=wrap;rounded=0;" parent="1" vertex="1">
          <mxGeometry x="90" y="200" width="40" height="20" as="geometry" />
        </mxCell>
        <mxCell id="NqLxFdqSJbWigP1i21gq-3" value="l,l/λ" style="text;html=1;strokeColor=none;fillColor=none;align=center;verticalAlign=middle;whiteSpace=wrap;rounded=0;" vertex="1" parent="1">
          <mxGeometry x="190" y="200" width="40" height="20" as="geometry" />
        </mxCell>
        <mxCell id="NqLxFdqSJbWigP1i21gq-4" value="r,r/λ" style="text;html=1;strokeColor=none;fillColor=none;align=center;verticalAlign=middle;whiteSpace=wrap;rounded=0;" vertex="1" parent="1">
          <mxGeometry x="280" y="200" width="40" height="20" as="geometry" />
        </mxCell>
        <mxCell id="NqLxFdqSJbWigP1i21gq-5" value="o,o/λ" style="text;html=1;strokeColor=none;fillColor=none;align=center;verticalAlign=middle;whiteSpace=wrap;rounded=0;" vertex="1" parent="1">
          <mxGeometry x="360" y="200" width="40" height="20" as="geometry" />
        </mxCell>
        <mxCell id="NqLxFdqSJbWigP1i21gq-6" value="λ,z/z" style="text;html=1;strokeColor=none;fillColor=none;align=center;verticalAlign=middle;whiteSpace=wrap;rounded=0;" vertex="1" parent="1">
          <mxGeometry x="260" y="410" width="40" height="20" as="geometry" />
        </mxCell>
        <mxCell id="NqLxFdqSJbWigP1i21gq-7" value="(a..z)-{each i/p alphabet},{each i/p alphabet}/λ" style="text;html=1;strokeColor=none;fillColor=none;align=center;verticalAlign=middle;whiteSpace=wrap;rounded=0;" vertex="1" parent="1">
          <mxGeometry x="130" y="330" width="40" height="20" as="geometry" />
        </mxCell>
        <mxCell id="NqLxFdqSJbWigP1i21gq-8" value="(a..z),(a..z)/λ" style="text;html=1;strokeColor=none;fillColor=none;align=center;verticalAlign=middle;whiteSpace=wrap;rounded=0;" vertex="1" parent="1">
          <mxGeometry x="340" y="455" width="40" height="20" as="geometry" />
        </mxCell>
        <mxCell id="NqLxFdqSJbWigP1i21gq-9" value="λ,z/z (I as in main diagram)" style="text;html=1;strokeColor=none;fillColor=none;align=center;verticalAlign=middle;whiteSpace=wrap;rounded=0;" vertex="1" parent="1">
          <mxGeometry x="590" y="455" width="40" height="20" as="geometry" />
        </mxCell>
        <mxCell id="NqLxFdqSJbWigP1i21gq-10" value="h,h/λ" style="text;html=1;strokeColor=none;fillColor=none;align=center;verticalAlign=middle;whiteSpace=wrap;rounded=0;" vertex="1" parent="1">
          <mxGeometry x="680" y="430" width="40" height="20" as="geometry" />
        </mxCell>
        <mxCell id="NqLxFdqSJbWigP1i21gq-11" value="e,e/λ" style="text;html=1;strokeColor=none;fillColor=none;align=center;verticalAlign=middle;whiteSpace=wrap;rounded=0;" vertex="1" parent="1">
          <mxGeometry x="745" y="350" width="40" height="20" as="geometry" />
        </mxCell>
        <mxCell id="NqLxFdqSJbWigP1i21gq-12" value="l,l/λ" style="text;html=1;strokeColor=none;fillColor=none;align=center;verticalAlign=middle;whiteSpace=wrap;rounded=0;" vertex="1" parent="1">
          <mxGeometry x="760" y="270" width="40" height="20" as="geometry" />
        </mxCell>
        <mxCell id="NqLxFdqSJbWigP1i21gq-13" value="l,l/λ" style="text;html=1;strokeColor=none;fillColor=none;align=center;verticalAlign=middle;whiteSpace=wrap;rounded=0;" vertex="1" parent="1">
          <mxGeometry x="710" y="200" width="40" height="20" as="geometry" />
        </mxCell>
        <mxCell id="NqLxFdqSJbWigP1i21gq-14" value="l,l/λ" style="text;html=1;strokeColor=none;fillColor=none;align=center;verticalAlign=middle;whiteSpace=wrap;rounded=0;" vertex="1" parent="1">
          <mxGeometry x="630" y="200" width="40" height="20" as="geometry" />
        </mxCell>
        <mxCell id="NqLxFdqSJbWigP1i21gq-15" value="o,o/λ" style="text;html=1;strokeColor=none;fillColor=none;align=center;verticalAlign=middle;whiteSpace=wrap;rounded=0;" vertex="1" parent="1">
          <mxGeometry x="540" y="200" width="40" height="20" as="geometry" />
        </mxCell>
        <mxCell id="NqLxFdqSJbWigP1i21gq-16" value="w,w/λ" style="text;html=1;strokeColor=none;fillColor=none;align=center;verticalAlign=middle;whiteSpace=wrap;rounded=0;" vertex="1" parent="1">
          <mxGeometry x="450" y="200" width="40" height="20" as="geometry" />
        </mxCell>
        <mxCell id="NqLxFdqSJbWigP1i21gq-17" value="As in Main Diagram" style="text;html=1;strokeColor=none;fillColor=none;align=center;verticalAlign=middle;whiteSpace=wrap;rounded=0;" vertex="1" parent="1">
          <mxGeometry x="185" y="510" width="40" height="20" as="geometry" />
        </mxCell>
        <mxCell id="NqLxFdqSJbWigP1i21gq-19" value="&lt;u&gt;&lt;b&gt;Check trigger String&lt;/b&gt;&lt;/u&gt;" style="text;html=1;strokeColor=none;fillColor=none;align=center;verticalAlign=middle;whiteSpace=wrap;rounded=0;" vertex="1" parent="1">
          <mxGeometry x="360" y="130" width="125" height="20" as="geometry" />
        </mxCell>
      </root>
    </mxGraphModel>
  </diagram>
</mxfile>
